<svg width="16" height="16" viewBox="0 0 16 16" fill="none" xmlns="http://www.w3.org/2000/svg">
<g clip-path="url(#clip0_355_592)">
<path d="M9.15434 14.5133L9.51567 13.9027L8.65567 13.3933L8.29367 14.004L9.15434 14.5133ZM6.48367 13.9027L6.84501 14.5133L7.70501 14.004L7.34434 13.3933L6.48367 13.9027ZM8.29367 14.004C8.26252 14.0539 8.21918 14.095 8.16775 14.1235C8.11632 14.152 8.05848 14.167 7.99967 14.167C7.94087 14.167 7.88303 14.152 7.8316 14.1235C7.78017 14.095 7.73683 14.0539 7.70567 14.004L6.84501 14.5133C7.36034 15.3847 8.63834 15.3847 9.15434 14.5133L8.29367 14.004ZM6.99967 1.83334H8.99967V0.833344H6.99967V1.83334ZM14.1663 7.00001V7.66668H15.1663V7.00001H14.1663ZM1.83301 7.66668V7.00001H0.833008V7.66668H1.83301ZM0.833008 7.66668C0.833008 8.43668 0.833008 9.03868 0.866341 9.52468C0.899674 10.0147 0.968341 10.4227 1.12501 10.8L2.04901 10.4173C1.95101 10.1827 1.89367 9.89601 1.86367 9.45668C1.83301 9.01268 1.83301 8.45001 1.83301 7.66668H0.833008ZM5.20167 12.1613C4.36434 12.1467 3.92567 12.0933 3.58167 11.9507L3.19967 12.8747C3.73634 13.0973 4.34701 13.1473 5.18434 13.162L5.20167 12.1613ZM1.12501 10.8C1.31765 11.2651 1.60002 11.6877 1.95599 12.0437C2.31197 12.3997 2.73457 12.682 3.19967 12.8747L3.58167 11.9507C2.88746 11.6631 2.33657 11.1116 2.04901 10.4173L1.12501 10.8ZM14.1663 7.66668C14.1663 8.45001 14.1663 9.01268 14.1357 9.45668C14.1057 9.89601 14.0483 10.1827 13.951 10.4173L14.8743 10.8C15.031 10.4227 15.0997 10.0147 15.1337 9.52468C15.167 9.03868 15.1663 8.43668 15.1663 7.66668H14.1663ZM10.815 13.1607C11.6523 13.1467 12.263 13.0973 12.7997 12.8747L12.417 11.9507C12.0737 12.0933 11.635 12.1467 10.7983 12.1613L10.815 13.1607ZM13.951 10.4173C13.6634 11.1116 13.1119 11.6631 12.4177 11.9507L12.7997 12.8747C13.2648 12.682 13.6874 12.3997 14.0434 12.0437C14.3993 11.6877 14.6817 11.2651 14.8743 10.8L13.951 10.4173ZM8.99967 1.83334C10.1003 1.83334 10.891 1.83334 11.5077 1.89268C12.117 1.95068 12.5043 2.06134 12.8137 2.25068L13.3357 1.39801C12.843 1.09668 12.2843 0.96201 11.6023 0.896677C10.9277 0.832677 10.081 0.833344 8.99967 0.833344V1.83334ZM15.1663 7.00001C15.1663 5.91868 15.1663 5.07268 15.1023 4.39734C15.0377 3.71534 14.903 3.15601 14.6017 2.66401L13.7483 3.18601C13.9383 3.49534 14.049 3.88268 14.107 4.49268C14.1657 5.10868 14.1663 5.89934 14.1663 7.00001H15.1663ZM12.813 2.25068C13.1945 2.48421 13.5152 2.80473 13.749 3.18601L14.6017 2.66401C14.2855 2.148 13.8517 1.71416 13.3357 1.39801L12.813 2.25068ZM6.99967 0.833344C5.91834 0.833344 5.07234 0.833344 4.39701 0.896677C3.71501 0.96201 3.15567 1.09668 2.66367 1.39801L3.18567 2.25134C3.49501 2.06134 3.88234 1.95068 4.49234 1.89268C5.10834 1.83401 5.89901 1.83334 6.99967 1.83334V0.833344ZM1.83301 7.00001C1.83301 5.89934 1.83301 5.10868 1.89234 4.49201C1.95034 3.88268 2.06101 3.49534 2.25034 3.18601L1.39767 2.66468C1.09634 3.15668 0.961674 3.71534 0.896341 4.39734C0.833008 5.07334 0.833008 5.91868 0.833008 7.00001H1.83301ZM2.66367 1.39801C2.14766 1.71416 1.71383 2.14866 1.39767 2.66468L2.25101 3.18601C2.48443 2.80488 2.80471 2.48437 3.18567 2.25068L2.66367 1.39801ZM7.34367 13.3933C7.20901 13.1647 7.09034 12.9627 6.97434 12.804C6.85549 12.6296 6.7004 12.483 6.51967 12.374L6.01701 13.2387C6.04834 13.2573 6.09167 13.2907 6.16634 13.3933C6.24701 13.504 6.33834 13.6573 6.48367 13.9027L7.34367 13.3933ZM5.18434 13.1607C5.47767 13.166 5.66234 13.17 5.80367 13.1853C5.93567 13.2 5.98701 13.2213 6.01701 13.2387L6.51967 12.374C6.33338 12.2697 6.12656 12.2074 5.91367 12.1913C5.71501 12.1693 5.47634 12.166 5.20167 12.1613L5.18434 13.1607ZM9.51567 13.9027C9.66101 13.658 9.75234 13.504 9.83301 13.3933C9.90767 13.2907 9.95101 13.2573 9.98234 13.2387L9.47968 12.374C9.28634 12.4873 9.14634 12.6373 9.02501 12.804C8.90967 12.9627 8.79034 13.164 8.65501 13.3933L9.51567 13.9027ZM10.7983 12.1613C10.5237 12.166 10.2843 12.1693 10.0857 12.1913C9.87834 12.2147 9.67501 12.2607 9.47968 12.374L9.98234 13.2387C10.0123 13.2213 10.0637 13.2 10.1957 13.1853C10.337 13.17 10.5223 13.1653 10.8157 13.1607L10.7983 12.1613Z" fill="#444444"/>
<path d="M5.33301 6H10.6663M5.33301 8.33333H8.99967" stroke="#444444" stroke-linecap="round"/>
</g>
<defs>
<clipPath id="clip0_355_592">
<rect width="16" height="16" fill="white"/>
</clipPath>
</defs>
</svg>
