<svg width="30" height="30" viewBox="0 0 30 30" fill="none" xmlns="http://www.w3.org/2000/svg">
<path d="M9.75 22.5H20.25C20.4374 22.4997 20.6182 22.5695 20.7567 22.6958C20.8952 22.822 20.9814 22.9956 20.9983 23.1822C21.0152 23.3689 20.9617 23.5551 20.8482 23.7042C20.7347 23.8534 20.5694 23.9546 20.385 23.988L20.25 24H9.75C9.56258 24.0003 9.38182 23.9305 9.24333 23.8042C9.10483 23.678 9.01862 23.5044 9.00169 23.3178C8.98475 23.1311 9.03832 22.9449 9.15183 22.7958C9.26534 22.6466 9.43058 22.5454 9.615 22.512L9.75 22.5ZM6.756 19.5H23.244C23.661 19.5 24 19.836 24 20.25C24 20.6175 23.733 20.925 23.3805 20.988L23.2455 21H6.7545C6.65563 21.0006 6.55762 20.9816 6.4661 20.9442C6.37459 20.9068 6.29138 20.8516 6.22126 20.7819C6.15114 20.7122 6.09549 20.6293 6.05752 20.5381C6.01955 20.4468 6 20.3489 6 20.25C6 19.8825 6.267 19.575 6.6195 19.512L6.756 19.5ZM15 4.5C18.6975 4.5 20.7945 6.861 21.099 9.711H21.192C23.571 9.711 25.5 11.5665 25.5 13.8555C25.5 16.1445 23.571 18 21.192 18H8.808C6.429 18 4.5 16.1445 4.5 13.8555C4.5 11.6505 6.288 9.849 8.5455 9.7185L8.901 9.711C9.2085 6.8415 11.3025 4.5 15 4.5Z" fill="#4D45D6"/>
</svg>
