<svg width="24" height="24" viewBox="0 0 24 24" fill="none" xmlns="http://www.w3.org/2000/svg">
<path d="M15.803 15.803C16.4586 15.1473 16.9787 14.369 17.3335 13.5124C17.6883 12.6558 17.8709 11.7377 17.8709 10.8105C17.8709 9.88327 17.6883 8.96515 17.3335 8.10854C16.9787 7.25192 16.4586 6.47359 15.803 5.81796C15.1473 5.16234 14.369 4.64227 13.5124 4.28745C12.6558 3.93262 11.7377 3.75 10.8105 3.75C9.88327 3.75 8.96515 3.93262 8.10854 4.28745C7.25192 4.64227 6.47359 5.16234 5.81796 5.81796C4.49387 7.14205 3.75 8.93791 3.75 10.8105C3.75 12.683 4.49387 14.4789 5.81796 15.803C7.14205 17.1271 8.93791 17.8709 10.8105 17.8709C12.683 17.8709 14.4789 17.1271 15.803 15.803ZM15.803 15.803L20.25 20.25" stroke="#666666" stroke-width="1.5" stroke-linecap="round" stroke-linejoin="round"/>
</svg>
