<svg width="103" height="55" viewBox="0 0 103 55" fill="none" xmlns="http://www.w3.org/2000/svg">
<path d="M1 0.5H40.5L40 3.5L27.5 4.5C34.3 13.7 41.8333 24.1667 45 28C58.6 17.6 61.8333 13.5 61.5 13L56 12L50.5 11.5L50 7.5L84 8L81.5 11C79.3333 11.5 74.4 12.6 72 13C69 13.5 52.5 28.5 49.5 31.5C47.1 33.9 48.5 44.1667 49.5 49H61.5V52.5H22.5L23.5 49C25.8333 49 30.9821 49.506 32.5 49C35.5 48 35.1667 46.3333 35.5 45V33C34.7 30.2 19.8333 13.5 12.5 5.5L1 3.5V0.5Z" fill="#410093" stroke="#410093" stroke-width="0.5"/>
<path d="M78 39L88 6L102 10.5L84 40.5L78 39Z" fill="#410093"/>
<path d="M71 51.5L74 44.5L82 47L79 53.5L71 51.5Z" fill="#410093"/>
<path d="M78 39L88 6L102 10.5L84 40.5L78 39Z" stroke="#410093"/>
<path d="M71 51.5L74 44.5L82 47L79 53.5L71 51.5Z" stroke="#410093"/>
</svg>
