<svg width="24" height="24" viewBox="0 0 24 24" fill="none" xmlns="http://www.w3.org/2000/svg">
<path d="M2.55332 9.57674C2.5694 9.86622 2.65516 10.1475 2.80332 10.3967C2.94311 10.6441 3.13402 10.8589 3.36332 11.0267C3.4632 11.0993 3.5805 11.1442 3.70332 11.1567L5.46332 11.3867C5.65857 11.42 5.83956 11.5105 5.98332 11.6467C6.51332 12.1567 7.05332 12.6467 7.79332 13.4267L8.64332 14.2667C8.75383 14.3815 8.83303 14.5226 8.87332 14.6767L9.81332 18.4567C9.80931 18.4966 9.80931 18.5368 9.81332 18.5767C9.94354 18.8698 10.1424 19.1273 10.393 19.3275C10.6436 19.5276 10.9387 19.6646 11.2533 19.7267H11.6133C11.8093 19.7249 12.0042 19.698 12.1933 19.6467C12.4996 19.5528 12.7779 19.3845 13.0033 19.1567L15.5433 16.6267L20.2133 21.2967C20.3555 21.4292 20.5435 21.5013 20.7378 21.4979C20.9321 21.4945 21.1175 21.4158 21.2549 21.2784C21.3924 21.141 21.4711 20.9556 21.4745 20.7613C21.4779 20.567 21.4058 20.3789 21.2733 20.2367L16.6033 15.5667L19.1033 13.0667C19.3269 12.8359 19.4915 12.5547 19.5833 12.2467C19.6849 11.9403 19.7021 11.6122 19.6333 11.2967C19.5746 10.9858 19.4407 10.694 19.2433 10.4467C19.0434 10.1961 18.7862 9.99717 18.4933 9.86674H18.3733L14.6333 8.86674C14.4676 8.82251 14.3161 8.73642 14.1933 8.61674C12.8033 7.24674 12.3233 6.76674 11.5633 5.94674C11.434 5.80977 11.3531 5.6341 11.3333 5.44674L11.0933 3.67674C11.0825 3.55046 11.0375 3.42949 10.9633 3.32674C10.7075 2.98245 10.3478 2.72951 9.93725 2.60527C9.52671 2.48103 9.08711 2.49206 8.68332 2.63674C8.41298 2.73642 8.16738 2.89334 7.96332 3.09674L3.08332 7.99674C2.88342 8.19962 2.72916 8.44285 2.63086 8.71016C2.53256 8.97747 2.49248 9.26269 2.51332 9.54674L2.55332 9.57674Z" fill="url(#paint0_linear_475_4823)"/>
<defs>
<linearGradient id="paint0_linear_475_4823" x1="21.1217" y1="2.51953" x2="2.64137" y2="2.64447" gradientUnits="userSpaceOnUse">
<stop stop-color="#7A42E8"/>
<stop offset="0.654011" stop-color="#4D45D6"/>
<stop offset="1" stop-color="#4D45D6"/>
</linearGradient>
</defs>
</svg>
