<svg width="22" height="20" viewBox="0 0 22 20" fill="none" xmlns="http://www.w3.org/2000/svg">
<path fill-rule="evenodd" clip-rule="evenodd" d="M6.24766 1H14.8911C17.7892 1 20.1388 3.34951 20.1388 6.24766V13.4247C20.1388 16.3229 17.7892 18.6724 14.8911 18.6724H6.24766C3.34951 18.6724 1 16.3229 1 13.4247V6.24766C1 3.34951 3.34951 1 6.24766 1Z" stroke="url(#paint0_linear_475_4801)" stroke-opacity="0.8" stroke-width="2" stroke-linecap="round" stroke-linejoin="round"/>
<path d="M16.549 9.64318H16.2373" stroke="url(#paint1_linear_475_4801)" stroke-opacity="0.8" stroke-width="2" stroke-linecap="round" stroke-linejoin="round"/>
<path d="M20.1389 12.3962H16.0906C14.6042 12.3953 13.3993 11.1914 13.3984 9.70495C13.3984 8.2185 14.6042 7.01458 16.0906 7.01367H20.1389" stroke="url(#paint2_linear_475_4801)" stroke-opacity="0.8" stroke-width="2" stroke-linecap="round" stroke-linejoin="round"/>
<defs>
<linearGradient id="paint0_linear_475_4801" x1="1.35614" y1="1" x2="20.004" y2="1.13661" gradientUnits="userSpaceOnUse">
<stop stop-color="#7A42E8"/>
<stop offset="0.654011" stop-color="#4D45D6"/>
<stop offset="1" stop-color="#4D45D6"/>
</linearGradient>
<linearGradient id="paint1_linear_475_4801" x1="15.9545" y1="9.1875" x2="16.8425" y2="9.19351" gradientUnits="userSpaceOnUse">
<stop stop-color="#7A42E8"/>
<stop offset="0.654011" stop-color="#4D45D6"/>
<stop offset="1" stop-color="#4D45D6"/>
</linearGradient>
<linearGradient id="paint2_linear_475_4801" x1="13.5239" y1="7.01367" x2="20.0913" y2="7.06931" gradientUnits="userSpaceOnUse">
<stop stop-color="#7A42E8"/>
<stop offset="0.654011" stop-color="#4D45D6"/>
<stop offset="1" stop-color="#4D45D6"/>
</linearGradient>
</defs>
</svg>
