<svg width="23" height="22" viewBox="0 0 23 22" fill="none" xmlns="http://www.w3.org/2000/svg">
<path fill-rule="evenodd" clip-rule="evenodd" d="M12.7423 1.87285L14.7981 6.13206C14.9996 6.55019 15.3885 6.84013 15.8395 6.90722L20.4385 7.59373C21.5748 7.76385 22.0269 9.19198 21.2046 10.0103L17.879 13.3242C17.5521 13.6501 17.4034 14.1185 17.4807 14.5786L18.2655 19.2571C18.4588 20.4145 17.271 21.2975 16.2554 20.7499L12.1449 18.5395C11.7419 18.3226 11.2593 18.3226 10.8551 18.5395L6.74463 20.7499C5.72901 21.2975 4.54119 20.4145 4.73565 19.2571L5.51933 14.5786C5.59664 14.1185 5.44787 13.6501 5.12104 13.3242L1.79539 10.0103C0.973055 9.19198 1.42522 7.76385 2.5615 7.59373L7.16048 6.90722C7.61148 6.84013 8.00156 6.55019 8.20304 6.13206L10.2577 1.87285C10.7661 0.819728 12.2339 0.819728 12.7423 1.87285Z" stroke="url(#paint0_linear_472_4257)" stroke-opacity="0.8" stroke-width="2" stroke-linecap="round" stroke-linejoin="round"/>
<defs>
<linearGradient id="paint0_linear_472_4257" x1="1.75182" y1="1.08301" x2="21.4825" y2="1.21928" gradientUnits="userSpaceOnUse">
<stop stop-color="#7A42E8"/>
<stop offset="0.654011" stop-color="#4D45D6"/>
<stop offset="1" stop-color="#4D45D6"/>
</linearGradient>
</defs>
</svg>
