<svg width="180" height="167" viewBox="0 0 180 167" fill="none" xmlns="http://www.w3.org/2000/svg">
<g filter="url(#filter0_d_703_5435)">
<path d="M158.34 9.46838H-11.0181C-16.4695 9.46838 -20.8887 13.8849 -20.8887 19.3329V54.6373C-20.8887 60.0853 -16.4695 64.5018 -11.0181 64.5018H158.34C163.791 64.5018 168.21 60.0853 168.21 54.6373V19.3329C168.21 13.8849 163.791 9.46838 158.34 9.46838Z" fill="white" stroke="#BFBFC5"/>
<path d="M142.111 46.3304L130.584 30.9106H153.637L142.111 46.3304Z" fill="#CACACA"/>
</g>
<path d="M25.0301 28.5318L29.109 40.4772H29.2713L33.3502 28.5318H35.7651L30.4687 43.2153H27.8914L22.6152 28.5318H25.0301ZM36.9299 43.2153V32.2035H39.1014V43.2153H36.9299ZM38.0258 30.4995C37.275 30.4995 36.6459 29.9315 36.6459 29.2213C36.6459 28.5121 37.275 27.9441 38.0258 27.9441C38.7563 27.9441 39.3854 28.5121 39.3854 29.2213C39.3854 29.9315 38.7563 30.4995 38.0258 30.4995ZM45.9686 43.4386C42.7217 43.4386 40.7329 41.2071 40.7329 37.7805C40.7329 34.3934 42.7622 32.0612 45.8264 32.0612C48.3428 32.0612 50.7171 33.6229 50.7171 37.5978V38.3682H42.884C42.9448 40.4574 44.1725 41.6536 45.9888 41.6536C47.2267 41.6536 48.0181 41.1261 48.3834 40.4574H50.575C50.088 42.2413 48.3834 43.4386 45.9686 43.4386ZM42.9042 36.7463H48.5863C48.5863 35.0621 47.5108 33.8462 45.8468 33.8462C44.1117 33.8462 42.9855 35.1846 42.9042 36.7463ZM54.6824 43.2153L51.4558 32.2035H53.688L55.8391 40.2747H55.9608L58.112 32.2035H60.3442L62.475 40.2342H62.5967L64.7274 32.2035H66.9597L63.7331 43.2153H61.5211L59.2889 35.2853H59.1265L56.9146 43.2153H54.6824ZM74.2206 43.2153H71.8463L77.1224 28.5318H79.6997L84.9962 43.2153H82.6219L81.2825 39.3422H75.5599L74.2206 43.2153ZM76.2093 37.4763H80.6331L78.4618 31.2098H78.3603L76.2093 37.4763ZM88.3324 28.5318V43.2153H86.161V28.5318H88.3324ZM92.6223 28.5318V43.2153H90.451V28.5318H92.6223Z" fill="black"/>
<path d="M0.410156 72.2896H158.339C164.078 72.2896 168.729 76.9383 168.729 82.6732V166.781H21.1903C9.71373 166.781 0.410156 157.483 0.410156 146.014V72.2896Z" fill="#EFEFEF"/>
<defs>
<filter id="filter0_d_703_5435" x="-30.3887" y="0.968384" width="210.1" height="76.0334" filterUnits="userSpaceOnUse" color-interpolation-filters="sRGB">
<feFlood flood-opacity="0" result="BackgroundImageFix"/>
<feColorMatrix in="SourceAlpha" type="matrix" values="0 0 0 0 0 0 0 0 0 0 0 0 0 0 0 0 0 0 127 0" result="hardAlpha"/>
<feOffset dx="1" dy="2"/>
<feGaussianBlur stdDeviation="5"/>
<feComposite in2="hardAlpha" operator="out"/>
<feColorMatrix type="matrix" values="0 0 0 0 0 0 0 0 0 0 0 0 0 0 0 0 0 0 0.08 0"/>
<feBlend mode="normal" in2="BackgroundImageFix" result="effect1_dropShadow_703_5435"/>
<feBlend mode="normal" in="SourceGraphic" in2="effect1_dropShadow_703_5435" result="shape"/>
</filter>
</defs>
</svg>
