<svg width="155" height="160" viewBox="0 0 155 160" fill="none" xmlns="http://www.w3.org/2000/svg">
<path d="M0.615234 0.910889H139.842C147.876 0.910889 154.388 7.41937 154.388 15.448V159.781H21.3954C9.91881 159.781 0.615234 150.483 0.615234 139.014V0.910889Z" fill="white"/>
<path d="M123.219 62.1744H23.4742C18.8835 62.1744 15.1621 65.8936 15.1621 70.4814V128.63C15.1621 133.218 18.8835 136.937 23.4742 136.937H123.219C127.809 136.937 131.531 133.218 131.531 128.63V70.4814C131.531 65.8936 127.809 62.1744 123.219 62.1744Z" fill="#EFEFEF"/>
<path d="M123.219 147.32H23.4742C18.8835 147.32 15.1621 151.04 15.1621 155.627V213.776C15.1621 218.364 18.8835 222.083 23.4742 222.083H123.219C127.809 222.083 131.531 218.364 131.531 213.776V155.627C131.531 151.04 127.809 147.32 123.219 147.32Z" fill="#EFEFEF"/>
<path d="M136.725 18.5631L140.967 22.8028M136.725 18.5631L132.482 14.3235M136.725 18.5631L132.482 22.8028M136.725 18.5631L140.967 14.3235" stroke="#CACACA" stroke-linecap="round" stroke-linejoin="round"/>
<path d="M45.4766 41.4071V31.8635H46.9274V40.1549H51.2408V41.4071H45.4766ZM55.6464 41.5525C53.6151 41.5525 52.296 40.0759 52.296 37.8611C52.296 35.6328 53.6151 34.1573 55.6464 34.1573C57.6645 34.1573 58.9836 35.6328 58.9836 37.8611C58.9836 40.0759 57.6645 41.5525 55.6464 41.5525ZM55.6464 40.3791C56.9391 40.3791 57.5591 39.2318 57.5591 37.8611C57.5591 36.4905 56.9391 35.3171 55.6464 35.3171C54.3273 35.3171 53.7074 36.4905 53.7074 37.8611C53.7074 39.2318 54.3273 40.3791 55.6464 40.3791ZM63.376 44.2408C61.5689 44.2408 60.3818 43.4371 60.2499 42.1059H61.6877C61.8195 42.7778 62.4527 43.108 63.3892 43.108C64.5104 43.108 65.2227 42.6334 65.2227 41.513V40.1019H65.1304C64.8798 40.564 64.3653 41.3012 63.0463 41.3012C61.3579 41.3012 60.0521 40.0365 60.0521 37.7552C60.0521 35.4749 61.3315 34.1573 63.0595 34.1573C64.3917 34.1573 64.8798 34.9609 65.1436 35.4095H65.2359V34.2486H66.6077V41.5649C66.6077 43.3977 65.2227 44.2408 63.376 44.2408ZM63.3628 40.1414C64.5632 40.1414 65.2359 39.2587 65.2359 37.7822C65.2359 36.3316 64.5764 35.3566 63.3628 35.3566C62.1097 35.3566 61.4898 36.4105 61.4898 37.7822C61.4898 39.1788 62.1361 40.1414 63.3628 40.1414ZM68.3224 41.4071V34.2486H69.7338V41.4071H68.3224ZM69.0348 33.1417C68.5468 33.1417 68.1378 32.7731 68.1378 32.311C68.1378 31.85 68.5468 31.4803 69.0348 31.4803C69.5096 31.4803 69.9186 31.85 69.9186 32.311C69.9186 32.7731 69.5096 33.1417 69.0348 33.1417ZM72.86 37.1623V41.4071H71.4486V34.2486H72.8072V35.422H72.8864C73.2294 34.6577 73.9284 34.1573 74.9969 34.1573C76.4742 34.1573 77.4371 35.0793 77.4371 36.8591V41.4071H76.0389V37.0304C76.0389 35.9889 75.4717 35.3701 74.522 35.3701C73.5591 35.3701 72.86 36.0159 72.86 37.1623Z" fill="black"/>
<path d="M29.7065 45.5606C34.871 45.5606 39.0576 41.3766 39.0576 36.2153C39.0576 31.054 34.871 26.87 29.7065 26.87C24.5421 26.87 20.3555 31.054 20.3555 36.2153C20.3555 41.3766 24.5421 45.5606 29.7065 45.5606Z" fill="#CACACA"/>
<path fill-rule="evenodd" clip-rule="evenodd" d="M27.2437 34.5508C27.2437 33.8707 27.4997 33.2186 27.9553 32.7378C28.411 32.257 29.0289 31.9871 29.6732 31.9871C30.3175 31.9871 30.9355 32.257 31.3911 32.7378C31.8467 33.2186 32.1026 33.8707 32.1026 34.5508C32.1026 35.2309 31.8467 35.8841 31.3911 36.3648C30.9355 36.8456 30.3175 37.1156 29.6732 37.1156C29.0289 37.1156 28.411 36.8456 27.9553 36.3648C27.4997 35.8841 27.2437 35.2309 27.2437 34.5508ZM27.2437 38.3979C26.4384 38.3979 25.666 38.7354 25.0964 39.3366C24.5269 39.9378 24.207 40.7529 24.207 41.6034C24.207 42.1132 24.3989 42.6023 24.7407 42.9636C25.0824 43.3239 25.5458 43.5264 26.029 43.5264H33.3173C33.8006 43.5264 34.2641 43.3239 34.6058 42.9636C34.9476 42.6023 35.1395 42.1132 35.1395 41.6034C35.1395 40.7529 34.8195 39.9378 34.25 39.3366C33.6805 38.7354 32.9081 38.3979 32.1026 38.3979H27.2437Z" fill="white"/>
<path d="M78.5397 31.0234H91.0078V43.4838H78.5397V31.0234Z" fill="white"/>
<path d="M82.9941 22.4279L86.8533 25.0798L82.9941 27.7329" stroke="#CACACA" stroke-linecap="round" stroke-linejoin="round"/>
</svg>
