<svg width="204" height="44" viewBox="0 0 204 44" fill="none" xmlns="http://www.w3.org/2000/svg">
<path d="M189.084 0.811157H14.5305C6.78382 0.811157 0.503906 7.0872 0.503906 14.8291V29.3662C0.503906 37.1081 6.78382 43.3842 14.5305 43.3842H189.084C196.83 43.3842 203.11 37.1081 203.11 29.3662V14.8291C203.11 7.0872 196.83 0.811157 189.084 0.811157Z" fill="white" stroke="#D5D5DA"/>
<path d="M79.9551 29.4429V14.1582H82.7396L85.5238 21.9044C85.8979 22.9013 86.2096 23.9396 86.5628 24.978H86.646C87.02 23.9396 87.3109 22.9013 87.6434 21.9044L90.4072 14.1582H93.1917V29.4429H90.9682V21.9044C90.9682 20.513 91.1552 18.5609 91.2799 17.1695H91.1968L89.95 20.6999L87.2902 27.9892H85.794L83.1341 20.6999L81.9084 17.1695H81.8253C81.95 18.5609 82.137 20.513 82.137 21.9044V29.4429H79.9551ZM101.173 29.7337C98.3265 29.7337 95.7913 27.5324 95.7913 23.7527C95.7913 19.9315 98.3265 17.7302 101.173 17.7302C103.999 17.7302 106.555 19.9315 106.555 23.7527C106.555 27.5324 103.999 29.7337 101.173 29.7337ZM101.173 27.7608C102.96 27.7608 104.103 26.1617 104.103 23.7527C104.103 21.3229 102.96 19.7238 101.173 19.7238C99.3655 19.7238 98.2641 21.3229 98.2641 23.7527C98.2641 26.1617 99.3655 27.7608 101.173 27.7608ZM108.95 29.4429V18.0209H110.904L111.111 20.0769H111.174C111.984 18.6024 113.189 17.7302 114.415 17.7302C114.977 17.7302 115.33 17.8133 115.683 17.9794L115.267 20.0561C114.873 19.9315 114.582 19.8692 114.104 19.8692C113.189 19.8692 112.067 20.5338 111.361 22.3405V29.4429H108.95ZM121.492 29.7337C118.375 29.7337 115.923 27.5116 115.923 23.7527C115.923 20.0354 118.479 17.7302 121.139 17.7302C124.152 17.7302 125.794 19.9108 125.794 23.1505C125.794 23.6281 125.752 24.085 125.69 24.3757H118.271C118.458 26.5563 119.83 27.8439 121.804 27.8439C122.822 27.8439 123.674 27.5324 124.526 26.9924L125.357 28.5292C124.297 29.2353 122.988 29.7337 121.492 29.7337ZM118.23 22.7143H123.716C123.716 20.7414 122.843 19.62 121.18 19.62C119.747 19.62 118.479 20.7207 118.23 22.7143Z" fill="#333333"/>
</svg>
