<svg width="68" height="68" viewBox="0 0 68 68" fill="none" xmlns="http://www.w3.org/2000/svg">
<circle cx="34" cy="34" r="34" fill="#D9D9D9"/>
<path fill-rule="evenodd" clip-rule="evenodd" d="M25.0417 27.9456C25.0417 25.4712 25.9723 23.0981 27.6289 21.3484C29.2855 19.5987 31.5323 18.6157 33.875 18.6157C36.2177 18.6157 38.4645 19.5987 40.1211 21.3484C41.7777 23.0981 42.7083 25.4712 42.7083 27.9456C42.7083 30.4201 41.7777 32.7932 40.1211 34.5429C38.4645 36.2926 36.2177 37.2756 33.875 37.2756C31.5323 37.2756 29.2855 36.2926 27.6289 34.5429C25.9723 32.7932 25.0417 30.4201 25.0417 27.9456ZM25.0417 41.9405C22.1132 41.9405 19.3047 43.1693 17.234 45.3564C15.1633 47.5435 14 50.5099 14 53.6029C14 55.4588 14.698 57.2386 15.9404 58.5509C17.1828 59.8632 18.8679 60.6004 20.625 60.6004H47.125C48.8821 60.6004 50.5672 59.8632 51.8096 58.5509C53.052 57.2386 53.75 55.4588 53.75 53.6029C53.75 50.5099 52.5867 47.5435 50.516 45.3564C48.4453 43.1693 45.6368 41.9405 42.7083 41.9405H25.0417Z" fill="white"/>
</svg>
