<svg width="24" height="24" viewBox="0 0 24 24" fill="none" xmlns="http://www.w3.org/2000/svg">
<path d="M4 20C3.45 20 2.97933 19.8043 2.588 19.413C2.19667 19.0216 2.00067 18.5506 2 18V5.99997C2 5.44997 2.196 4.9793 2.588 4.58797C2.98 4.19663 3.45067 4.00063 4 3.99997H20C20.55 3.99997 21.021 4.19597 21.413 4.58797C21.805 4.97997 22.0007 5.45063 22 5.99997V18C22 18.55 21.8043 19.021 21.413 19.413C21.0217 19.805 20.5507 20.0006 20 20H4ZM12 13L4 7.99997V18H20V7.99997L12 13ZM12 11L20 5.99997H4L12 11ZM4 7.99997V5.99997V18V7.99997Z" fill="#444444"/>
</svg>
