<svg width="170" height="52" viewBox="0 0 170 52" fill="none" xmlns="http://www.w3.org/2000/svg">
<g clip-path="url(#clip0_265_4495)">
<path d="M109.219 32.6219C108.753 32.7402 107.24 33.2132 106.774 33.4497C106.774 34.8686 106.541 41.3723 106.541 41.3723C106.425 44.3285 105.144 46.3387 101.767 47.7577L100.486 47.403C102.116 46.457 102.932 45.511 103.048 44.8015C103.397 43.8555 103.514 41.6088 103.514 37.5883C103.514 37.5883 103.514 34.5139 103.397 33.4497C102.931 33.3314 100.836 32.8584 100.137 32.7402V31.7942C101.418 31.7942 104.445 31.9124 105.493 31.9124C106.658 31.9124 108.055 31.9124 109.219 31.7942V32.6219ZM163.596 34.5139C163.363 34.6321 162.664 34.7504 161.966 34.8686C161.966 35.9329 162.082 43.619 162.082 45.3927C162.082 45.6292 161.849 45.7475 161.5 45.511C159.87 43.8555 154.63 37.8248 152.884 35.6964C152.884 37.1154 153 42.5548 153 43.5008C153.699 43.7373 155.212 44.092 155.445 44.092L155.562 45.1562H149.856V44.092C150.438 43.8555 150.904 43.619 151.486 43.5008C151.603 42.9095 151.603 35.3416 151.603 34.7504C151.137 34.7504 150.322 34.6321 149.74 34.6321V33.3314H153.932C155.445 35.1051 159.055 39.1256 160.918 41.2541C160.918 39.4803 160.801 35.3416 160.801 34.6321C160.452 34.6321 159.753 34.5139 159.055 34.3956L158.938 33.3314C159.288 33.3314 161.267 33.4497 161.616 33.4497C161.966 33.4497 163.596 33.3314 163.945 33.3314L163.596 34.5139ZM132.623 37.7066C132.623 39.1256 131.342 39.7168 129.829 39.9533V41.0176C132.856 40.6628 134.836 39.4803 134.836 37.5883V37.4701C134.836 35.3416 133.438 33.4497 130.178 33.4497H123.89L124.123 34.6321C124.705 34.7504 125.521 34.7504 126.103 34.7504C126.103 36.1694 126.336 42.2 126.219 43.9738C125.87 44.092 124.705 44.3285 124.24 44.4468L124.123 45.511H131.342V44.6833C130.877 44.565 129.247 44.2103 128.897 44.2103C128.897 43.8555 128.781 35.3416 128.781 34.8686C129.479 34.8686 130.644 34.8686 131.11 34.9869C132.39 35.3416 132.74 36.6424 132.74 37.5883M47.274 10.3912C46.4589 10.5095 42.9657 11.2189 41.8014 11.4554C40.5205 11.8102 28.6438 21.2701 27.8288 23.5168C27.7123 24.2263 27.8288 32.5037 27.8288 32.5037L34.5822 32.9767L34.3493 35.2234C33.4178 35.1051 27.1301 35.2234 23.1712 35.2234C21.1918 35.2234 15.137 35.4599 13.0411 35.3416L13.274 33.2132C14.5548 33.3314 16.5342 33.0949 17.6986 32.7402C18.863 32.3854 19.7945 31.9124 19.7945 30.7299V23.635C19.3288 22.3343 9.43151 9.68171 6.86986 7.67149C6.17123 7.43499 1.16438 6.84375 0 6.60725L0.232876 4.47878H22.9384L22.589 6.489C21.5411 6.7255 16.7671 6.84375 15.4863 7.19849C18.7466 12.0467 23.8699 18.4321 25.5 20.7971C26.4315 19.4963 35.1644 13.2292 35.3973 11.3372C34.1164 11.1007 30.0411 10.5095 29.3425 10.5095L28.9931 8.38098H48.5548L47.274 10.3912ZM95.7123 28.838C92.1027 28.6015 85.8151 28.7197 82.2055 28.838L82.4383 26.946C83.0205 26.946 85.9315 26.473 86.6301 26.3547V19.7328C84.8836 19.7328 74.8699 19.9693 73.3562 20.3241V26.2365C73.3562 26.2365 77.6644 26.7095 78.5959 26.8277L78.363 28.838C74.5205 28.6015 66.7192 28.6015 62.9931 28.838L63.226 26.7095C64.3904 26.7095 67.5342 26.3547 68.2329 26.2365C68.3493 24.8175 68.3493 22.4525 68.3493 20.0876V17.1314C68.3493 16.0671 68.3493 13.2292 68.2329 12.1649C67.4178 12.1649 63.8082 11.8102 62.8767 11.8102L63.1096 9.91821C66.3699 10.1547 76.2671 10.1547 78.9452 9.91821L78.7123 11.6919C77.8973 11.6919 74.4041 12.2832 73.3562 12.2832V17.4861H86.6301V9.79996C85.6986 9.68171 83.2534 9.20872 82.2055 9.09047L82.4383 7.31674C84.6507 7.43499 93.5 7.43499 95.8288 7.31674L95.7123 9.20872C95.0137 9.20872 92.452 9.68171 91.5205 9.79996V26.5912C91.5205 26.5912 95.2466 27.0642 96.0616 27.1825L95.7123 28.838ZM162.664 30.8482L160.219 30.9664L160.685 26.7095L163.13 26.8277L165.459 26.7095L164.993 30.8482H162.664ZM165.459 23.2803H161.849V4.24228H170L169.301 7.08025L165.459 23.2803Z" fill="#7A42E8"/>
<path d="M111.199 26.8277H109.336C106.308 26.7095 100.486 25.054 100.486 19.7328V19.2598C100.486 14.0569 106.308 12.2832 109.336 12.1649H111.199C114.226 12.2832 120.048 13.9387 120.048 19.2598V19.7328C120.048 24.9358 114.226 26.7095 111.199 26.8277ZM125.171 19.3781C125.171 13.3474 119.466 9.68171 110.733 9.44522H109.801C100.603 9.68171 95.4796 13.3474 95.4796 19.3781V19.6146C95.4796 25.2905 101.069 29.311 109.801 29.5475H110.733C119.466 29.311 125.055 25.527 125.171 19.6146V19.3781ZM144.034 24.8175H141.473C138.212 24.581 132.274 22.5708 132.158 16.8949C132.274 11.2189 138.212 9.32697 141.473 9.09047H144.034C147.295 9.32697 153.233 11.2189 153.349 16.8949C153.349 22.5708 147.295 24.6993 144.034 24.8175ZM159.055 16.8949C158.822 10.5095 152.884 6.37076 143.219 6.13426H142.521C132.856 6.37076 126.801 10.1547 126.685 16.7766V17.0131C126.918 23.635 132.856 27.5372 142.521 27.7737H143.219C152.767 27.5372 158.822 23.635 159.055 16.8949C159.055 17.0131 159.055 17.0131 159.055 16.8949ZM47.2741 23.5168C47.6234 22.689 50.4179 16.5401 50.4179 16.5401L53.096 23.5168H47.2741ZM61.7124 31.5577C60.6645 29.9022 56.9385 20.3241 55.1919 16.0671L58.3357 15.5941L58.685 13.9387H53.9111C52.1645 13.9387 44.7124 13.9387 44.0138 13.8204L43.8974 15.4759L47.6234 16.4219C47.6234 16.4219 42.1508 27.5372 40.9864 29.0745C40.0549 29.311 37.6097 29.9022 36.6782 30.0205L36.4453 32.0307C37.1439 31.9124 46.8083 32.0307 47.7398 32.0307L47.9727 30.1387L44.596 29.311C44.596 29.311 46.1097 26.1182 46.3426 25.7635C47.3905 25.527 53.6782 25.4088 53.6782 25.4088L55.8905 31.5577C55.8905 31.5577 53.2124 32.0307 52.1645 32.0307L51.9316 34.0409H65.7878L66.0207 32.2672C65.2056 32.3854 62.6439 31.6759 61.7124 31.5577ZM147.062 43.9738C145.781 41.2541 143.685 36.0511 143.103 34.6321L144.617 34.3956L144.733 33.3314L138.562 33.5679V34.3956L140.192 34.6321C139.144 36.9971 136.349 43.0278 135.884 43.7373C135.418 43.8555 134.952 44.092 134.486 44.2103L134.37 45.1563C135.767 45.038 138.911 45.1563 139.377 45.1563V44.3285L137.863 43.8555C137.863 43.8555 138.795 41.4906 139.144 40.7811H143.452L144.617 43.8555C144.617 43.8555 143.569 44.092 142.754 44.2103L142.637 45.038H148.925L149.041 44.092C148.343 44.3285 147.062 43.9738 147.062 43.9738ZM139.493 39.9533C139.726 39.3621 141.356 35.4599 141.356 35.4599L143.103 39.9533H139.493ZM121.096 43.9738C120.281 42.3183 118.185 37.1154 117.137 34.6321L118.767 34.2774V33.3314L112.48 33.5679V34.3956L114.11 34.6321C113.062 36.9971 110.267 43.0278 109.801 43.7373C109.336 43.9738 108.87 44.092 108.404 44.2103L108.288 45.1563H113.295V44.3285L111.781 43.8555C111.781 43.8555 112.712 41.4906 113.062 40.7811H117.37L118.534 43.8555C118.534 43.8555 117.486 44.092 116.671 44.2103L116.555 45.038H122.843L122.959 44.092C122.377 44.3285 121.096 43.9738 121.096 43.9738ZM113.528 39.9533C113.76 39.3621 115.391 35.4599 115.391 35.4599L117.137 39.9533H113.528Z" fill="#7A42E8"/>
</g>
<defs>
<clipPath id="clip0_265_4495">
<rect width="170" height="52" fill="white"/>
</clipPath>
</defs>
</svg>
